<?xml version="1.0" encoding="utf-8"?>
<!-- Generator: Adobe Illustrator 15.0.0, SVG Export Plug-In . SVG Version: 6.00 Build 0)  -->
<!DOCTYPE svg PUBLIC "-//W3C//DTD SVG 1.1//EN" "http://www.w3.org/Graphics/SVG/1.1/DTD/svg11.dtd">
<svg version="1.1" id="Layer_1" xmlns="http://www.w3.org/2000/svg" xmlns:xlink="http://www.w3.org/1999/xlink" x="0px" y="0px"
	 width="177.875px" height="41.572px" viewBox="0 0 177.875 41.572" enable-background="new 0 0 177.875 41.572"
	 xml:space="preserve">
<path fill="#D62323" d="M19.865,20.108c0,0,11.865,3.352,13.021-3.069c0,0,0,0,0-0.001c0.006-0.028,0.01-0.056,0.016-0.084
	c0.349-1.933-0.938-3.784-2.871-4.131c-1.933-0.348-3.781,0.935-4.131,2.867l0,0c0,0,0,0,0,0.002c0,0,0,0.001,0,0.002
	c-0.001,0.006-0.002,0.012-0.003,0.018C25.832,16.08,24.869,21.009,19.865,20.108z"/>
<path fill="#D62323" d="M16.014,13.651c0,0-11.865-3.352-13.021,3.069c0,0,0,0,0,0c-0.005,0.028-0.011,0.056-0.016,0.084
	c-0.349,1.934,0.937,3.784,2.871,4.133c1.933,0.348,3.781-0.936,4.131-2.868l0,0c0,0,0,0,0.001-0.001c0,0,0-0.001,0-0.002
	c0.001-0.005,0.002-0.012,0.003-0.018C10.047,17.681,11.01,12.75,16.014,13.651z"/>
<path fill="#D62323" d="M21.257,16.608c0,0,8.945-8.484,4.017-12.76h-0.001c-0.021-0.02-0.042-0.038-0.063-0.057
	c-1.484-1.288-3.731-1.128-5.019,0.356c-1.287,1.482-1.129,3.728,0.353,5.016l0,0c0,0,0,0,0.001,0c0,0.001,0.001,0.001,0.002,0.001
	c0.005,0.004,0.009,0.007,0.014,0.011C20.844,9.421,24.588,12.769,21.257,16.608z"/>
<path fill="#D62323" d="M14.509,17.207c0,0-8.945,8.484-4.018,12.759h0c0.021,0.02,0.042,0.039,0.064,0.057
	c1.485,1.289,3.731,1.129,5.019-0.354c1.287-1.484,1.128-3.729-0.353-5.018l0,0c0,0,0,0-0.001,0c0-0.002-0.001-0.002-0.002-0.002
	c-0.004-0.004-0.009-0.008-0.014-0.012C14.923,24.396,11.178,21.048,14.509,17.207z"/>
<path fill="#D62323" d="M19.721,13.341c0,0-3.006-11.957-9.149-9.759c0,0,0,0,0,0C10.544,3.59,10.517,3.6,10.49,3.609
	C8.64,4.271,7.677,6.308,8.338,8.158c0.662,1.849,2.695,2.812,4.544,2.153l0,0c0,0,0,0,0.001,0c0.001,0,0.001,0,0.002-0.001
	c0.006-0.001,0.012-0.003,0.018-0.006C13.255,10.176,18.009,8.554,19.721,13.341z"/>
<path fill="#D62323" d="M16.422,20.475c0,0,3.007,11.958,9.149,9.76l0.001-0.002c0.027-0.008,0.054-0.018,0.081-0.027
	c1.85-0.662,2.813-2.697,2.151-4.547c-0.662-1.85-2.695-2.813-4.544-2.154l0,0c0,0-0.001,0-0.001,0s-0.001,0-0.002,0
	c-0.006,0.002-0.011,0.006-0.018,0.008C22.888,23.64,18.134,25.263,16.422,20.475z"/>
<g>
	<path fill="#FFFFFF" d="M53.683,33.79c0,0.315-0.01,0.583-0.028,0.804c-0.02,0.22-0.047,0.408-0.085,0.565
		c-0.038,0.157-0.088,0.294-0.151,0.406c-0.063,0.114-0.164,0.243-0.302,0.389c-0.139,0.145-0.406,0.33-0.803,0.557
		c-0.396,0.227-0.881,0.442-1.454,0.651c-0.573,0.208-1.228,0.38-1.964,0.519c-0.737,0.138-1.534,0.208-2.39,0.208
		c-1.675,0-3.187-0.258-4.534-0.773c-1.348-0.517-2.493-1.288-3.438-2.314c-0.944-1.026-1.668-2.308-2.172-3.845
		c-0.504-1.535-0.755-3.324-0.755-5.365c0-2.076,0.277-3.922,0.831-5.534c0.554-1.611,1.328-2.966,2.324-4.061
		c0.995-1.096,2.188-1.927,3.579-2.494s2.925-0.85,4.6-0.85c0.68,0,1.334,0.057,1.964,0.17c0.629,0.113,1.211,0.262,1.747,0.444
		c0.535,0.183,1.017,0.394,1.445,0.633c0.428,0.24,0.728,0.444,0.897,0.614c0.17,0.17,0.287,0.312,0.35,0.425
		c0.062,0.113,0.113,0.259,0.151,0.435c0.038,0.176,0.066,0.384,0.085,0.624c0.019,0.239,0.028,0.535,0.028,0.888
		c0,0.378-0.013,0.699-0.038,0.963c-0.025,0.264-0.069,0.479-0.132,0.642c-0.063,0.164-0.139,0.283-0.227,0.359
		c-0.088,0.076-0.188,0.113-0.302,0.113c-0.189,0-0.428-0.11-0.718-0.331c-0.29-0.22-0.664-0.465-1.124-0.736
		s-1.008-0.517-1.643-0.737c-0.636-0.22-1.395-0.33-2.276-0.33c-0.97,0-1.835,0.198-2.597,0.595c-0.762,0.397-1.411,0.964-1.946,1.7
		c-0.536,0.737-0.941,1.628-1.218,2.673c-0.277,1.046-0.416,2.223-0.416,3.533c0,1.436,0.148,2.679,0.444,3.73
		c0.295,1.051,0.718,1.917,1.265,2.597c0.548,0.68,1.209,1.188,1.984,1.52c0.773,0.335,1.646,0.501,2.616,0.501
		c0.881,0,1.644-0.104,2.286-0.311s1.193-0.438,1.652-0.689c0.46-0.252,0.838-0.479,1.134-0.681
		c0.295-0.201,0.525-0.302,0.689-0.302c0.126,0,0.227,0.024,0.302,0.075s0.138,0.151,0.189,0.303c0.05,0.15,0.088,0.361,0.113,0.633
		C53.669,32.975,53.683,33.337,53.683,33.79z"/>
	<path fill="#FFFFFF" d="M78.957,24.987c0,2.027-0.252,3.841-0.755,5.439c-0.504,1.6-1.253,2.958-2.248,4.072
		c-0.995,1.113-2.226,1.964-3.692,2.549c-1.468,0.585-3.165,0.879-5.091,0.879c-1.902,0-3.56-0.248-4.978-0.747
		c-1.416-0.496-2.597-1.255-3.542-2.275c-0.944-1.02-1.652-2.316-2.125-3.892c-0.472-1.573-0.708-3.438-0.708-5.591
		c0-1.977,0.251-3.755,0.755-5.335c0.504-1.581,1.253-2.925,2.248-4.034c0.995-1.108,2.226-1.958,3.693-2.55
		c1.466-0.591,3.169-0.888,5.109-0.888c1.851,0,3.485,0.246,4.902,0.737c1.417,0.491,2.6,1.247,3.551,2.267
		c0.951,1.02,1.668,2.308,2.153,3.863C78.714,21.036,78.957,22.871,78.957,24.987z M73.743,25.252c0-1.284-0.101-2.452-0.302-3.503
		c-0.202-1.052-0.545-1.953-1.029-2.703c-0.485-0.749-1.13-1.328-1.937-1.738c-0.806-0.409-1.813-0.614-3.022-0.614
		c-1.222,0-2.242,0.23-3.061,0.689c-0.818,0.46-1.479,1.074-1.983,1.842c-0.504,0.769-0.859,1.666-1.067,2.691
		c-0.208,1.027-0.312,2.113-0.312,3.26c0,1.334,0.101,2.534,0.302,3.599s0.542,1.974,1.02,2.729
		c0.479,0.756,1.121,1.332,1.927,1.729c0.806,0.396,1.819,0.594,3.042,0.594c1.221,0,2.241-0.227,3.06-0.68
		c0.818-0.454,1.479-1.07,1.983-1.851c0.503-0.781,0.859-1.69,1.067-2.73C73.639,27.527,73.743,26.423,73.743,25.252z"/>
	<path fill="#FFFFFF" d="M103.438,24.911c0,2.243-0.292,4.16-0.879,5.753c-0.585,1.594-1.426,2.894-2.521,3.9
		c-1.095,1.007-2.427,1.747-3.994,2.221c-1.568,0.47-3.436,0.708-5.602,0.708h-5.837c-0.415,0-0.764-0.123-1.048-0.369
		c-0.283-0.246-0.425-0.646-0.425-1.199V14.617c0-0.554,0.142-0.954,0.425-1.2c0.284-0.245,0.633-0.368,1.048-0.368h6.272
		c2.179,0,4.026,0.255,5.545,0.766c1.517,0.509,2.795,1.265,3.834,2.267c1.039,1,1.829,2.238,2.371,3.711
		C103.167,21.266,103.438,22.973,103.438,24.911z M98.3,25.082c0-1.158-0.136-2.234-0.406-3.229
		c-0.271-0.996-0.706-1.858-1.304-2.589c-0.598-0.73-1.366-1.3-2.305-1.709c-0.938-0.409-2.169-0.614-3.692-0.614H88.08v16.623
		h2.588c1.36,0,2.506-0.177,3.438-0.528c0.932-0.354,1.71-0.886,2.332-1.598c0.624-0.71,1.09-1.596,1.398-2.653
		S98.3,26.492,98.3,25.082z"/>
	<path fill="#FFFFFF" d="M122.007,35.547c0,0.366-0.017,0.67-0.048,0.916s-0.078,0.443-0.141,0.595
		c-0.064,0.151-0.142,0.263-0.236,0.332c-0.095,0.068-0.199,0.104-0.312,0.104h-12.279c-0.414,0-0.765-0.123-1.048-0.369
		s-0.425-0.646-0.425-1.199V14.617c0-0.554,0.142-0.954,0.425-1.2c0.283-0.245,0.634-0.368,1.048-0.368h12.204
		c0.112,0,0.214,0.032,0.302,0.095c0.088,0.063,0.163,0.173,0.227,0.331c0.063,0.157,0.109,0.358,0.142,0.604
		c0.031,0.245,0.047,0.557,0.047,0.935c0,0.353-0.016,0.652-0.047,0.897c-0.032,0.246-0.078,0.444-0.142,0.595
		c-0.063,0.151-0.139,0.262-0.227,0.331c-0.088,0.069-0.189,0.104-0.302,0.104h-8.729v5.97h7.387c0.113,0,0.217,0.034,0.312,0.104
		s0.173,0.177,0.235,0.321c0.064,0.145,0.11,0.339,0.143,0.585c0.031,0.246,0.048,0.544,0.048,0.897
		c0,0.366-0.017,0.668-0.048,0.906c-0.032,0.24-0.078,0.433-0.143,0.576c-0.062,0.146-0.141,0.25-0.235,0.312
		s-0.198,0.094-0.312,0.094h-7.387v6.895h8.804c0.112,0,0.217,0.035,0.312,0.104c0.095,0.07,0.172,0.181,0.236,0.331
		c0.062,0.151,0.109,0.349,0.141,0.595S122.007,35.182,122.007,35.547z"/>
	<path fill="#FFFFFF" d="M154.875,36.812c0,0.126-0.036,0.24-0.104,0.339c-0.069,0.102-0.195,0.184-0.378,0.246
		s-0.425,0.113-0.727,0.151c-0.303,0.038-0.688,0.057-1.153,0.057c-0.453,0-0.831-0.019-1.133-0.057
		c-0.303-0.038-0.542-0.089-0.718-0.151c-0.178-0.062-0.303-0.145-0.378-0.246c-0.075-0.099-0.113-0.213-0.113-0.339V16.921h-0.038
		l-7.084,19.872c-0.05,0.164-0.132,0.301-0.245,0.406c-0.113,0.108-0.268,0.192-0.463,0.255s-0.443,0.104-0.746,0.123
		c-0.302,0.02-0.668,0.028-1.096,0.028c-0.429,0-0.793-0.016-1.096-0.048c-0.302-0.03-0.552-0.081-0.745-0.151
		c-0.195-0.067-0.351-0.153-0.464-0.255c-0.113-0.099-0.188-0.22-0.227-0.358l-6.838-19.872h-0.038v19.891
		c0,0.126-0.034,0.24-0.104,0.339c-0.07,0.102-0.198,0.184-0.387,0.246c-0.189,0.062-0.433,0.113-0.729,0.151
		c-0.295,0.038-0.676,0.057-1.142,0.057c-0.453,0-0.831-0.019-1.134-0.057c-0.302-0.038-0.545-0.089-0.727-0.151
		c-0.184-0.062-0.31-0.145-0.378-0.246c-0.07-0.099-0.104-0.213-0.104-0.339v-21.78c0-0.643,0.169-1.134,0.509-1.474
		s0.794-0.51,1.36-0.51h3.249c0.578,0,1.077,0.048,1.492,0.142c0.416,0.095,0.774,0.252,1.077,0.473
		c0.302,0.22,0.554,0.51,0.755,0.869c0.201,0.358,0.378,0.803,0.529,1.332l5.289,14.563h0.075l5.479-14.525
		c0.163-0.529,0.343-0.976,0.538-1.341c0.194-0.365,0.421-0.661,0.681-0.888c0.258-0.227,0.563-0.387,0.915-0.482
		c0.354-0.094,0.762-0.142,1.229-0.142h3.344c0.339,0,0.633,0.044,0.878,0.132c0.246,0.089,0.446,0.218,0.604,0.387
		c0.157,0.17,0.277,0.378,0.359,0.624c0.081,0.245,0.123,0.525,0.123,0.84V36.812z"/>
	<path fill="#FFFFFF" d="M174.688,35.547c0,0.366-0.017,0.67-0.048,0.916s-0.078,0.443-0.141,0.595
		c-0.064,0.151-0.142,0.263-0.236,0.332c-0.095,0.068-0.199,0.104-0.312,0.104h-12.279c-0.414,0-0.764-0.123-1.048-0.369
		c-0.283-0.246-0.425-0.646-0.425-1.199V14.617c0-0.554,0.142-0.954,0.425-1.2c0.284-0.245,0.634-0.368,1.048-0.368h12.204
		c0.112,0,0.214,0.032,0.302,0.095c0.088,0.063,0.163,0.173,0.227,0.331c0.063,0.157,0.109,0.358,0.142,0.604
		c0.031,0.245,0.047,0.557,0.047,0.935c0,0.353-0.016,0.652-0.047,0.897c-0.032,0.246-0.078,0.444-0.142,0.595
		c-0.063,0.151-0.139,0.262-0.227,0.331c-0.088,0.069-0.189,0.104-0.302,0.104h-8.729v5.97h7.387c0.113,0,0.217,0.034,0.312,0.104
		s0.173,0.177,0.235,0.321c0.064,0.145,0.11,0.339,0.143,0.585c0.031,0.246,0.048,0.544,0.048,0.897
		c0,0.366-0.017,0.668-0.048,0.906c-0.032,0.24-0.078,0.433-0.143,0.576c-0.062,0.146-0.141,0.25-0.235,0.312
		s-0.198,0.094-0.312,0.094h-7.387v6.895h8.804c0.112,0,0.217,0.035,0.312,0.104c0.095,0.07,0.172,0.181,0.236,0.331
		c0.062,0.151,0.109,0.349,0.141,0.595S174.688,35.182,174.688,35.547z"/>
</g>
</svg>
