<?xml version="1.0" encoding="utf-8"?>
<!-- Generator: Adobe Illustrator 15.0.0, SVG Export Plug-In . SVG Version: 6.00 Build 0)  -->
<!DOCTYPE svg PUBLIC "-//W3C//DTD SVG 1.1//EN" "http://www.w3.org/Graphics/SVG/1.1/DTD/svg11.dtd">
<svg version="1.1" id="Layer_1" xmlns="http://www.w3.org/2000/svg" xmlns:xlink="http://www.w3.org/1999/xlink" x="0px" y="0px"
	 width="604.748px" height="560px" viewBox="0 0 604.748 560" enable-background="new 0 0 604.748 560" xml:space="preserve">
<path fill="#FF2E2E" d="M302.406,560c244.453-146.615,288.588-307.482,294.021-335.994c5.436-28.504,40.968-177.838-92.347-217.883
	C355.372-23.971,302.406,80.104,302.406,80.104S260.986,1.032,152.342,0.01C43.695-1.01-0.894,73.773,0.013,152.964
	C0.013,237.581,39.623,398.451,302.406,560z"/>
<path opacity="0.1" enable-background="new    " d="M302.379,336c48.893-29.323,57.718-61.496,58.804-67.198
	c1.087-5.701,8.194-35.568-18.469-43.577c-29.742-6.019-40.335,14.796-40.335,14.796s-8.284-15.814-30.013-16.019
	c-21.729-0.204-30.647,14.752-30.466,30.591C241.9,271.517,249.822,303.689,302.379,336z"/>
<path opacity="0.1" enable-background="new    " d="M302.384,378c85.561-51.315,101.005-107.619,102.907-117.598
	c1.902-9.977,14.339-62.243-32.321-76.259c-52.048-10.533-70.585,25.894-70.585,25.894s-14.497-27.675-52.521-28.033
	c-38.026-0.357-53.634,25.816-53.315,53.534C196.546,265.153,210.41,321.458,302.384,378z"/>
<path opacity="0.1" enable-background="new    " d="M302.391,434c134.449-80.639,158.726-169.115,161.711-184.796
	c2.988-15.677,22.533-97.812-50.788-119.836c-81.79-16.551-110.923,40.689-110.923,40.689s-22.779-43.49-82.533-44.052
	c-59.757-0.561-84.28,40.57-83.782,84.125C136.073,256.669,157.86,345.148,302.391,434z"/>
<path opacity="0.1" enable-background="new    " d="M302.397,499c183.341-109.961,216.438-230.612,220.515-251.995
	c4.076-21.378,30.727-133.379-69.26-163.413c-111.531-22.57-151.255,55.486-151.255,55.486s-31.065-59.304-112.549-60.07
	C108.364,78.243,74.921,134.33,75.6,193.725C75.601,257.186,105.31,377.838,302.397,499z"/>
</svg>

